<svg xmlns="http://www.w3.org/2000/svg" xmlns:xlink="http://www.w3.org/1999/xlink" viewBox="0 0 346.7 346.54"><defs><style>.cls-1{fill:url(#radial-gradient);}.cls-2{fill:#4d1810;}</style><radialGradient id="radial-gradient" cx="174.03" cy="170.55" fx="192.8219099030083" fy="130.4362299546915" r="170" gradientUnits="userSpaceOnUse"><stop offset="0" stop-color="#ffad3e"/><stop offset="0.61" stop-color="#fe9637"/><stop offset="1" stop-color="#fc801d"/></radialGradient></defs><g id="Layer_2" data-name="Layer 2"><g id="Breadown"><g id="BG"><path class="cls-1" d="M174,.55a170,170,0,1,1-170,170A170,170,0,0,1,174,.55" transform="translate(0)"/><path class="cls-2" d="M174,0a172.22,172.22,0,0,1,158.8,104.76A174.45,174.45,0,0,1,343,137a177.86,177.86,0,0,1,3.73,33.6,173.69,173.69,0,0,1-49,123.65,172,172,0,0,1-26.24,22.13c-2.4,1.56-4.77,3.19-7.21,4.7s-4.92,3-7.44,4.34-5.07,2.71-7.67,3.94-5.19,2.46-7.85,3.55A173,173,0,0,1,174,346.54,173.91,173.91,0,0,1,14,104.26,172.64,172.64,0,0,1,108.36,12a170.66,170.66,0,0,1,32.29-9.28A172.34,172.34,0,0,1,174,0V1.08a171.16,171.16,0,0,0-32.95,3.83A168.2,168.2,0,0,0,19.91,106.71a166.35,166.35,0,0,0,217,215.68c2.5-1,4.92-2.15,7.4-3.21s4.82-2.39,7.23-3.57,4.71-2.6,7.08-3.89,4.58-2.83,6.88-4.24a170.21,170.21,0,0,0,25.28-20.16A165.73,165.73,0,0,0,329.4,106.2,167.86,167.86,0,0,0,174,1.08Z" transform="translate(0)"/></g></g></g></svg>