<svg xmlns="http://www.w3.org/2000/svg" viewBox="0 0 328 328"><defs><style>.cls-1,.cls-3{fill:none;stroke-linecap:round;stroke-linejoin:round;}.cls-1{stroke:#000;stroke-width:2.5px;}.cls-2{fill:#4d1810;}.cls-3{stroke:#4d1810;stroke-width:5px;}</style></defs><g id="Layer_2" data-name="Layer 2"><g id="Breadown"><g id="Clock_maps" data-name="Clock maps"><path d="M163.5,164.37h0m0,0Z"/><path d="M163.5,164.37h0m0,0Z"/><line class="cls-1" x1="266.19" y1="222.5" x2="293.9" y2="238.5"/><path d="M163.13,164h0m0,0Z"/><path d="M163.13,164h0m0,0Z"/><line class="cls-1" x1="223" y1="265.69" x2="239" y2="293.4"/><path d="M163,163.5h0m0,0Z"/><path d="M163,163.5h0m0,0Z"/><line class="cls-1" x1="164" y1="281.5" x2="164" y2="313.5"/><path d="M163.13,163h0m0,0Z"/><path d="M163.13,163h0m0,0Z"/><line class="cls-1" x1="105" y1="265.69" x2="89" y2="293.4"/><path d="M163.5,162.63h0m0,0Z"/><path d="M163.5,162.63h0m0,0Z"/><line class="cls-1" x1="61.81" y1="222.5" x2="34.1" y2="238.5"/><path d="M164,162.5h0m0,0Z"/><path d="M164,162.5h0m0,0Z"/><line class="cls-1" x1="46" y1="163.5" x2="14" y2="163.5"/><path d="M164.5,162.63h0m0,0Z"/><path d="M164.5,162.63h0m0,0Z"/><line class="cls-1" x1="61.81" y1="104.5" x2="34.1" y2="88.5"/><path d="M164.87,163h0m0,0Z"/><path d="M164.87,163h0m0,0Z"/><line class="cls-1" x1="105" y1="61.31" x2="89" y2="33.6"/><path d="M165,163.5h0m0,0Z"/><path d="M165,163.5h0m0,0Z"/><line class="cls-1" x1="164" y1="45.5" x2="164" y2="13.5"/><path d="M164.87,164h0m0,0Z"/><path d="M164.87,164h0m0,0Z"/><line class="cls-1" x1="223" y1="61.31" x2="239" y2="33.6"/><path d="M164.5,164.37h0m0,0Z"/><path d="M164.5,164.37h0m0,0Z"/><line class="cls-1" x1="266.19" y1="104.5" x2="293.9" y2="88.5"/><path d="M164,164.5h0m0,0Z"/><path d="M164,164.5h0m0,0Z"/><line class="cls-1" x1="282" y1="163.5" x2="314" y2="163.5"/><polygon class="cls-2" points="163.5 164 163.5 164 163.5 164 163.5 164 163.5 164 163.5 164"/><line class="cls-3" x1="164" y1="283" x2="164" y2="325.5"/><polygon class="cls-2" points="164 163.5 164 163.5 164 163.5 164 163.5 164 163.5 164 163.5"/><line class="cls-3" x1="45" y1="164" x2="2.5" y2="164"/><polygon class="cls-2" points="164.5 164 164.5 164 164.5 164 164.5 164 164.5 164 164.5 164"/><line class="cls-3" x1="164" y1="45" x2="164" y2="2.5"/><polygon class="cls-2" points="164 164.5 164 164.5 164 164.5 164 164.5 164 164.5 164 164.5"/><line class="cls-3" x1="283" y1="164" x2="325.5" y2="164"/></g></g></g></svg>