<svg xmlns="http://www.w3.org/2000/svg" viewBox="0 0 156.68 136.71"><defs><style>.cls-1{fill:#fc801d;}.cls-2{fill:#4d1810;}.cls-3{fill:#ffad3e;}</style></defs><g id="Layer_2" data-name="Layer 2"><g id="Breadown"><g id="FC1"><path class="cls-1" d="M116.91,49.63c-8.23-7.3-8.52-27.87-.74-37.57C114.39,9.63,119,8,122.66,9.83l.54-1.07c-1.36-2.42,3.78-2.95,8.1.18-.93-3.55,3.64-3.57,6.61-.28.38-3.21,8.84,1.34,12.33,6,5.83,7.71,7.11,16.76,6.15,26.07-.48,4.72-5.65,8.83-10.91,9.7a48.61,48.61,0,0,1-5,.49,39,39,0,0,1-10.58-.43C129.65,50.91,116.65,49.91,116.91,49.63Z"/><path class="cls-2" d="M139.87,11.16c-.51,6.28-.66,12.08-1.55,17.76-.64,4.11-2.89,7.75-7.55,8.19-4.91.47-8-2.89-9.19-7-1.49-5.16-1.85-10.65-2.67-15.79-6.63,3.32-7.66,17.18-2,35.3-8.23-7.3-8.52-27.87-.74-37.57l-5.26-7.17.9-.71,10.85,5.65.54-1.07q-2-3.63-4.06-7.28l1-.66c3.42,2.49,6.85,5,11.17,8.12L129.11.59l1-.59c2.43,2.68,4.85,5.37,7.82,8.66.38-3.21.65-5.59.88-7.51,4,4.63,8,8.85,11.45,13.47,5.83,7.71,7.11,16.76,6.15,26.07-.48,4.72-5.65,8.83-10.91,9.7a48.61,48.61,0,0,1-5,.49,39,39,0,0,1-10.58-.43c3.69-.67,7.35-1.45,11.06-2,9.62-1.44,13.49-6.05,12.14-15.68a58.73,58.73,0,0,0-3.95-14.3A11.62,11.62,0,0,0,139.87,11.16Z"/><path class="cls-1" d="M7.94,57.09c-9-2.29-10.79-25.47-3.13-39-1.56-2.36,2.48-4,5.55-2.18l.74-1C10,12.58,14.42,11.59,18,14.4c-.44-3.32,4.06-3,6.84.43.17-3.32,15.85,6,16.07,17.32.09,4.47,1,9,.72,13.41A12,12,0,0,1,30.3,56.85c-5.28.28-10.58.06-15.92.06C14.65,56.91,8.65,57.09,7.94,57.09Z"/><path class="cls-2" d="M8.57,19.39C.91,24.87.37,50,7.94,57.09c-9-2.29-10.79-25.47-3.13-39l-4.62-7,1-.79,9.22,5.6.74-1L7.77,7.86l.93-.73L18,14.4C17.59,11.08,17.3,8.78,16.8,5l8.07,9.87c.17-3.32.28-5.71.4-8.11l1.44-.37c1.73,10.37,14,14.48,14.23,25.8.09,4.47,1,9,.72,13.41A12,12,0,0,1,30.3,56.85c-5.28.28-10.58.06-15.92.06,4-.67,8.1-1.49,12.21-2,8.55-1,12.21-4.73,11.75-13.42A73.87,73.87,0,0,0,35.47,25c-1.1-3.76-3.88-6.85-7.9-7.38-.72,6-1.15,11.72-2.17,17.37-.74,4.09-2.77,7.92-7.59,8-5.12.1-7.3-4-8.09-8.14C8.75,29.75,8.9,24.47,8.57,19.39Z"/><path class="cls-2" d="M25.61,119.29c36.84,2.24,70.68-5.87,103-21.26-3.6,14-24.16,31.86-42.13,36.82C67,140.23,39.79,133.62,25.61,119.29Zm78.2-3.32-50,11C74.36,133.49,90.29,128.9,103.81,116Z"/><path class="cls-3" d="M103.81,116l-50,11C74.36,133.49,90.29,128.9,103.81,116Z"/><path class="cls-2" d="M67.8,71c.57-4.32,3.06-7.93,9.11-7.59,5.62.31,9,3.43,9,8.79,0,5.19-3.21,8-8.79,7.71C71.74,79.67,67.65,77.8,67.8,71Z"/></g></g></g></svg>