<svg xmlns="http://www.w3.org/2000/svg" viewBox="0 0 162.25 145.11"><defs><style>.cls-1{fill:#fc801d;}.cls-2{fill:#4d1810;}.cls-3{fill:#ffad3e;}</style></defs><g id="Layer_2" data-name="Layer 2"><g id="Breadown"><g id="FC2"><path class="cls-1" d="M118.07,55.12c-9.13-8.1-9.45-30.95-.81-41.73-2-2.69,3.18-4.56,7.2-2.47l.6-1.19c-1.5-2.69,4.2-3.28,9,.2-1-3.94,4-4,7.35-.31.41-3.57,9.81,1.49,13.68,6.61,6.48,8.57,7.9,18.63,6.84,29-.54,5.23-6.28,9.8-12.12,10.76a50.81,50.81,0,0,1-5.52.54A43.2,43.2,0,0,1,132.54,56C132.23,56.55,117.8,55.44,118.07,55.12Z"/><path class="cls-2" d="M143.58,12.39c-.57,7-.74,13.42-1.72,19.73-.71,4.56-3.21,8.61-8.39,9.1-5.46.52-8.88-3.22-10.2-7.77-1.66-5.73-2.06-11.83-3-17.54-7.36,3.69-8.51,19.08-2.23,39.21-9.13-8.1-9.45-30.95-.81-41.73l-5.85-8,1-.79,12,6.28.6-1.19-4.5-8.09,1.1-.72,12.4,9C133,6,132.32,3.32,131.63.65L132.72,0l8.69,9.62c.41-3.57.72-6.21,1-8.34,4.4,5.13,8.84,9.83,12.71,15,6.48,8.57,7.9,18.63,6.84,29-.54,5.23-6.28,9.8-12.12,10.76a50.81,50.81,0,0,1-5.52.54A43.2,43.2,0,0,1,132.54,56c4.09-.76,8.17-1.62,12.28-2.24,10.68-1.59,15-6.71,13.49-17.41a65.8,65.8,0,0,0-4.39-15.88A12.94,12.94,0,0,0,143.58,12.39Z"/><path class="cls-1" d="M9.09,63.68C-1.19,61.07-3.26,34.53,5.51,19.06c-1.79-2.7,2.83-4.63,6.35-2.49l.84-1.13c-1.27-2.7,3.81-3.84,7.94-.62-.5-3.81,4.64-3.4,7.83.49.19-3.79,18.14,6.87,18.39,19.82.1,5.12,1.1,10.26.82,15.35a13.77,13.77,0,0,1-13,12.93c-6,.32-12.11.06-18.22.06C16.77,63.47,9.91,63.68,9.09,63.68Z"/><path class="cls-2" d="M9.81,20.53c-8.76,6.27-9.38,35-.72,43.15C-1.19,61.07-3.26,34.53,5.51,19.06l-5.3-8,1.09-.9,10.56,6.41.84-1.13q-1.9-4-3.8-8.11L10,6.49l10.68,8.33C20.14,11,19.8,8.39,19.23,4c3.59,4.39,6.05,7.41,9.24,11.3.19-3.79.32-6.54.46-9.28l1.65-.43c2,11.87,16,16.58,16.28,29.53.1,5.12,1.1,10.26.82,15.35a13.77,13.77,0,0,1-13,12.93c-6,.32-12.11.06-18.22.06,4.61-.76,9.27-1.7,14-2.27,9.78-1.2,14-5.42,13.44-15.36a84.16,84.16,0,0,0-3.28-19c-1.26-4.3-4.44-7.83-9-8.45-.82,6.83-1.31,13.42-2.49,19.89-.85,4.68-3.17,9.06-8.68,9.18-5.87.12-8.37-4.63-9.26-9.32C10,32.39,10.19,26.34,9.81,20.53Z"/><path class="cls-2" d="M28.63,125.18c42.16,2.56,80.87-6.72,117.91-24.33-4.12,16-27.66,36.46-48.21,42.13C76,149.14,44.85,141.58,28.63,125.18Zm89.48-3.8L60.91,134C84.41,141.43,102.64,136.18,118.11,121.38Z"/><path class="cls-3" d="M118.11,121.38,60.91,134C84.41,141.43,102.64,136.18,118.11,121.38Z"/><path class="cls-2" d="M70.81,73.82c.57-4.33,3.06-7.93,9.12-7.6,5.62.32,9,3.43,9,8.79,0,5.19-3.21,7.95-8.79,7.71C74.76,82.5,70.67,80.63,70.81,73.82Z"/></g></g></g></svg>