<svg xmlns="http://www.w3.org/2000/svg" viewBox="0 0 156.68 130.15"><defs><style>.cls-1{fill:#4d1810;}.cls-2{fill:#ffad3e;}</style></defs><g id="Layer_2" data-name="Layer 2"><g id="Breadown"><g id="FC3"><path class="cls-1" d="M25.72,107.25c36.36,6.37,70.89,2.11,104.78-9.54-5.15,13.48-27.59,29-46,31.85C64.49,132.71,38.2,123.08,25.72,107.25Zm78.08,5.5L52.89,118.1C72.57,126.84,88.91,124.07,103.8,112.75Z"/><path class="cls-2" d="M103.8,112.75,52.89,118.1C72.57,126.84,88.91,124.07,103.8,112.75Z"/><path class="cls-1" d="M67.8,64.76c.57-4.32,3.06-7.93,9.11-7.59,5.62.31,9,3.42,9,8.79,0,5.19-3.21,7.94-8.79,7.71C71.74,73.44,67.65,71.57,67.8,64.76Z"/><path class="cls-1" d="M7.94,50.85c-9-2.28-10.79-25.47-3.13-39-.17-.17,5.84-2.18,5.55-2.18l.74-1c-.45,0,7.5,0,6.93-.54s6.62.43,6.84.43c.17-3.32,15.85,6,16.07,17.31.09,4.48,1,9,.72,13.41A12,12,0,0,1,30.3,50.61c-5.28.29-10.58.06-15.92.06C14.65,50.68,8.65,50.68,7.94,50.85Z"/><path class="cls-1" d="M116.91,43.4c-8.23-7.3-8.52-27.87-.74-37.58C114.39,3.4,119,1.71,122.66,3.6l.54-1.07c-1.36-2.43,3.78-3,8.1.18-.93-3.55,3.64-3.58,6.61-.28.38-3.22,8.84,1.34,12.33,6,5.83,7.72,7.11,16.77,6.15,26.08-.48,4.71-5.65,8.83-10.91,9.7a48.59,48.59,0,0,1-5,.48,39,39,0,0,1-10.58-.42C129.65,44.68,116.65,43.68,116.91,43.4Z"/></g></g></g></svg>