<svg xmlns="http://www.w3.org/2000/svg" viewBox="0 0 156.68 134.54"><defs><style>.cls-1{fill:#fc801d;}.cls-2{fill:#4d1810;}.cls-3{fill:#ffad3e;}</style></defs><g id="Layer_2" data-name="Layer 2"><g id="Breadown"><g id="FC4"><path class="cls-1" d="M116.91,43.4c-8.23-7.3-8.52-27.87-.74-37.58C114.39,3.4,119,1.71,122.66,3.6l.54-1.07c-1.36-2.43,3.78-3,8.1.18-.93-3.55,3.64-3.58,6.61-.28.38-3.22,8.84,1.34,12.33,6,5.83,7.72,7.11,16.77,6.15,26.08-.48,4.71-5.65,8.83-10.91,9.7a48.59,48.59,0,0,1-5,.48,39,39,0,0,1-10.58-.42C129.65,44.68,116.65,43.68,116.91,43.4Z"/><path class="cls-2" d="M116.91,28.57c-8.23-4.81-8.52-18.35-.74-24.74-1.78-1.59,2.87-2.7,6.49-1.46l.54-.7c-1.36-1.6,3.78-1.95,8.1.11-.93-2.33,3.64-2.35,6.61-.18.38-2.12,8.84.88,12.33,3.92,5.83,5.08,7.11,11,6.15,17.17-.48,3.1-5.65,5.81-10.91,6.38-1.64.18-3.31.25-5,.32a58.88,58.88,0,0,1-10.58-.28C129.65,29.41,116.65,28.76,116.91,28.57Z"/><path class="cls-2" d="M8.57,13.15c-7.66,5.49-8.2,30.6-.63,37.7-9-2.28-10.79-25.47-3.13-39-.17-.17,5.84-2.18,5.55-2.18l.74-1c-.45,0,7.5,0,6.93-.54s6.62.43,6.84.43c.17-3.32,15.85,6,16.07,17.31.09,4.48,1,9,.72,13.41A12,12,0,0,1,30.3,50.61c-5.28.29-10.58.06-15.92.06,4-.66,8.1-1.48,12.21-2,8.55-1,12.21-4.74,11.75-13.42a73.67,73.67,0,0,0-2.87-16.55c-1.1-3.77-3.88-6.85-7.9-7.39C27.57,11.68,8.57,13.68,8.57,13.15Z"/><path class="cls-1" d="M7.94,50.85c-9-2.28-10.79-25.47-3.13-39-.17-.17,5.84-2.18,5.55-2.18l.74-1c-.45,0,7.5,0,6.93-.54s6.62.43,6.84.43c.17-3.32,15.85,6,16.07,17.31.09,4.48,1,9,.72,13.41A12,12,0,0,1,30.3,50.61c-5.28.29-10.58.06-15.92.06C14.65,50.68,8.65,50.68,7.94,50.85Z"/><path class="cls-2" d="M7.94,32.49c-9-1.3-10.79-14.58-3.13-22.31-.17-.1,5.84-1.25,5.55-1.25l.74-.56c-.45,0,7.5,0,6.93-.31s6.62.25,6.84.25c.17-1.9,15.85,3.43,16.07,9.91.09,2.56,1,5.13.72,7.67-.33,3.51-5.33,6.28-11.36,6.47-5.28.16-10.58,0-15.92,0C14.65,32.39,8.65,32.39,7.94,32.49Z"/><path class="cls-2" d="M13.87,106.35C58.61,114.19,101.1,109,142.8,94.62c-6.33,16.59-34,35.61-56.61,39.18C61.58,137.68,29.22,125.83,13.87,106.35ZM110,113.12,47.3,119.71C71.52,130.47,91.62,127.06,110,113.12Z"/><path class="cls-3" d="M110,113.12,47.3,119.71C71.52,130.47,91.62,127.06,110,113.12Z"/><path class="cls-2" d="M67.8,64.76c.57-4.32,3.06-7.93,9.11-7.59,5.62.31,9,3.42,9,8.79,0,5.19-3.21,7.94-8.79,7.71C71.74,73.44,67.65,71.57,67.8,64.76Z"/></g></g></g></svg>