<svg xmlns="http://www.w3.org/2000/svg" viewBox="0 0 11.59 112.8"><defs><style>.cls-1{fill:#4d1810;}</style></defs><g id="Layer_2" data-name="Layer 2"><g id="Layer_9" data-name="Layer 9"><path class="cls-1" d="M5.29,112.42a87.49,87.49,0,0,1-2.76-14c-.59-4.66-.88-9.33-1-14-.37-9.33-.32-18.66-.13-28s.4-18.66.31-28l0-3.5,0-1.75a4.82,4.82,0,0,0-.22-1.75,15.2,15.2,0,0,0-.89-1.75A3.58,3.58,0,0,1,0,17.92a7.36,7.36,0,0,1,1.21-3.5c.32-.58.66-1.16.92-1.75a12.86,12.86,0,0,0,.59-1.75c.35-1.16.69-2.33,1-3.5.61-2.33,1.19-4.66,1.57-7A.51.51,0,0,1,5.87,0a.5.5,0,0,1,.42.41c.38,2.34,1,4.67,1.58,7,.31,1.17.64,2.34,1,3.5a12.92,12.92,0,0,0,.6,1.75,17.28,17.28,0,0,0,.92,1.75,7.47,7.47,0,0,1,1.21,3.5,3.6,3.6,0,0,1-.49,1.75,15.08,15.08,0,0,0-.88,1.75A4.82,4.82,0,0,0,10,23.17l0,1.75-.06,3.5c-.08,9.34.11,18.67.31,28s.24,18.67-.13,28c-.15,4.67-.45,9.34-1,14a86.4,86.4,0,0,1-2.76,14,.52.52,0,0,1-.65.36A.55.55,0,0,1,5.29,112.42Z"/></g></g></svg>