<svg xmlns="http://www.w3.org/2000/svg" viewBox="0 0 10.03 134.51"><defs><style>.cls-1{fill:#fc801d;}</style></defs><g id="Layer_2" data-name="Layer 2"><g id="Layer_9" data-name="Layer 9"><path class="cls-1" d="M3.8,133.27C4,122.19,4,111.1,4,100S3.8,77.85,3.62,66.77,3.19,44.6,2.84,33.52l-.23-8.31-.12-4.16A5.06,5.06,0,0,0,1.8,19c-.4-.69-.89-1.38-1.26-2.08A4.11,4.11,0,0,1,0,14.82c.05-.7.14-1.39.24-2.08a38.2,38.2,0,0,1,.82-4.16A33.41,33.41,0,0,1,2.41,4.43,21.73,21.73,0,0,1,4.52.27.6.6,0,0,1,5.35.1a.55.55,0,0,1,.17.17A23,23,0,0,1,7.63,4.43,35.17,35.17,0,0,1,9,8.58c.35,1.39.61,2.77.82,4.16.09.69.18,1.38.23,2.08a4,4,0,0,1-.54,2.07c-.37.7-.86,1.39-1.26,2.08a5,5,0,0,0-.68,2.08l-.12,4.16-.24,8.31c-.34,11.08-.56,22.17-.78,33.25S6.08,88.94,6,100s0,22.17.19,33.25a1.22,1.22,0,0,1-2.43,0Z"/></g></g></svg>