<svg xmlns="http://www.w3.org/2000/svg" viewBox="0 0 10.03 148.51"><defs><style>.cls-1{fill:#fc801d;}</style></defs><g id="Layer_2" data-name="Layer 2"><g id="Layer_9" data-name="Layer 9"><path class="cls-1" d="M9,22.58c-.28-1-.61-2.09-1-3.14.08-.15.15-.31.24-.47.4-.69.89-1.38,1.26-2.08A4,4,0,0,0,10,14.82c0-.7-.14-1.39-.23-2.08C9.59,11.35,9.33,10,9,8.58A35.17,35.17,0,0,0,7.63,4.43,23,23,0,0,0,5.52.27.55.55,0,0,0,5.35.1a.6.6,0,0,0-.83.17A21.73,21.73,0,0,0,2.41,4.43,33.41,33.41,0,0,0,1.06,8.58a38.2,38.2,0,0,0-.82,4.16c-.1.69-.19,1.38-.24,2.08a4.11,4.11,0,0,0,.54,2.07c.37.7.86,1.39,1.26,2.08.09.16.17.32.24.47-.37,1-.71,2.1-1,3.14a38.2,38.2,0,0,0-.82,4.16c-.1.69-.19,1.38-.24,2.08a4.11,4.11,0,0,0,.54,2.07c.37.7.86,1.39,1.26,2.08a5.06,5.06,0,0,1,.69,2.08l.12,4.16.23,8.31c.35,11.08.56,22.17.78,33.25S4,102.94,4,114c0,.83,0,1.65,0,2.48q0,8.39-.2,16.77v0a1.23,1.23,0,0,0,.17.57q0,6.69-.17,13.38v0a1.22,1.22,0,0,0,2.43,0q-.14-6.69-.17-13.39a1.06,1.06,0,0,0,.17-.61q-.17-8.39-.19-16.78V114c0-11.08.19-22.17.37-33.25s.44-22.17.78-33.25l.24-8.31.12-4.16A5,5,0,0,1,8.23,33c.4-.69.89-1.38,1.26-2.08A4,4,0,0,0,10,28.82c0-.7-.14-1.39-.23-2.08C9.59,25.35,9.33,24,9,22.58Z"/></g></g></svg>